<svg id="Layer_2" data-name="Layer 2" xmlns="http://www.w3.org/2000/svg" xmlns:xlink="http://www.w3.org/1999/xlink" viewBox="0 0 400 300" width="406" height="306" class="illustration styles_illustrationTablet__1DWOa"><defs><linearGradient id="linear-gradient" x1="141.97" y1="206.84" x2="179.87" y2="173.99" gradientUnits="userSpaceOnUse"><stop offset="0" stop-opacity="0"></stop><stop offset="0.99" stop-color="#1a1a1a"></stop></linearGradient><linearGradient id="linear-gradient-2" x1="276.83" y1="222.5" x2="318.11" y2="186.73" xlink:href="#linear-gradient"></linearGradient><linearGradient id="linear-gradient-3" x1="183.65" y1="241.6" x2="221.55" y2="208.75" xlink:href="#linear-gradient"></linearGradient><linearGradient id="linear-gradient-4" x1="234.62" y1="255.23" x2="252.84" y2="239.44" xlink:href="#linear-gradient"></linearGradient></defs><title>191-200</title><ellipse cx="211.58" cy="224.61" rx="131.85" ry="43.74" fill="#afd32f"></ellipse><polyline points="155.54 183.06 118.03 193.03 150.03 213.19 188.64 200.95 192.18 185.97 164.86 179.5" opacity="0.32" fill="url(#linear-gradient)"></polyline><polyline points="272.47 191.2 246.45 202.49 294.2 232.57 332.81 220.33 336.35 205.36 309.03 198.88" opacity="0.32" fill="url(#linear-gradient-2)"></polyline><path d="M92.93,206.3s45.3,5.44,49.86,15.17c0,0,1.38,3.22-4.42,5.58s-13.55,4.67-13.12,6.69,26.83,9.9,27.08,12.93-1.21,11.14-16.07,13.85l-15.44-4.18" fill="#b8dee8"></path><path d="M91.82,206.3c1.06-.67,53.38,7.59,48.12,15.17S113.22,229,128.6,235.32s25.5,5.46,23.48,13.16-24.77,9.77-24.77,9.77-31-8.67-42.67-21.77S85.55,210.25,91.82,206.3Z" fill="#34b5e2"></path><path d="M129.7,241.4c-.8-1.31-2.43-1.85-3.78-2.35a51.9,51.9,0,0,0-5.58-1.54c-.26-.06-.76-.13-1.35-.22-2.7,0-5.7-.43-6.45-2.52-.69-1.93,1.33-3.82,2.44-5.14a47.23,47.23,0,0,0,4.4-5.57,4.84,4.84,0,0,0-.09-3.17c-1.16-3.06-4.72-4.47-8-5.18,3.95,1.25,7.79,3.93,6.69,7.94-.92,3.34-4.51,5.16-5.63,8.4-1.22,3.54,1.91,5,4.76,5.9,3.64,1.15,10.68,1.36,13.14,4.92A4.33,4.33,0,0,0,129.7,241.4Z" fill="#fff"></path><path d="M112.81,240.08c-3.65-1-7.6-1-10.75-3.48-2.68-2.13-2.17-5.26-.46-7.9s6.62-5.9,3.7-9.44c-1.71-2.07-4.24-2.72-6.66-3.54l4.83,3.58a6.5,6.5,0,0,1,1.56,1.45c1.78,2.59-1.91,5.44-3.28,7.28s-3.22,4.31-2.37,6.9c.62,1.9,2.31,2.76,4.06,3.38a55.77,55.77,0,0,0,5.59,1.3q1.88.46,3.73,1a2.81,2.81,0,0,1,1.82.55c.4,0,.8,0,1.2.07A13.81,13.81,0,0,0,112.81,240.08Z" fill="#fff"></path><path d="M95.18,225.13c-.58-3.85-5.31-5.6-8.72-5.27a1.59,1.59,0,0,0-.64.2c3.89,1.22,9.77,2,8.56,7.26a8.73,8.73,0,0,1-1.64,3.34A5.73,5.73,0,0,0,95.18,225.13Z" fill="#fff"></path><polyline points="152.94 80.11 157.27 47.27 157.27 76.95" fill="#6a9546"></polyline><path d="M147.58,54.29c12.46,7.08,8,31.48,6.61,38-.23,1-.38,1.61-.38,1.61" fill="#6a9546"></path><path d="M133.11,59.8l18.64,16-.46-12.15s1.38-10-8.86-11S133.11,59.8,133.11,59.8Z" fill="#6a9546"></path><path d="M156.3,194.68a13.22,13.22,0,0,1-8.87-5c5.91-37.07,1.84-107.94,1.84-107.94l5-.66c9.67,27.81,12.38,98.34,12.83,112.35C164,195.07,159.72,195.19,156.3,194.68Z" fill="#d8876a"></path><path d="M179.11,54.18c15.32-.68,25.32,16.29,25.32,16.29l-49.92,19-2.07-12.37" fill="#85b23b"></path><path d="M156.13,74.53s7.66-19.68,23-20.35" fill="#85b23b"></path><path d="M208.39,86.06q-2.69,0-5.38.12l-3.44-6.74,1.32,6.81c-4.89.18-9.77.43-14.65.71l-4.4.27a19.53,19.53,0,0,0-2-5.84c-.21-.29-.05,3,.13,6a143.68,143.68,0,0,0-25.5,3.8l.85-2.59S158.51,73.05,184.69,67s42.66,19.67,42.66,19.67l-.52.05C220.77,85.75,214.56,86,208.39,86.06Z" fill="#6a9546"></path><path d="M147.58,54.29c-14.42-8.2-19,8.49-19,8.49" fill="#6a9546"></path><path d="M154.52,89.51s3.58-12.82-14-25.66-37.19-1.36-37.19-1.36l12.15,9.73,8.9-3.61-4.94,6.46L129.79,82s6.68-4.45,8.87-5.69c.5-.28-4.57,8.13-4.57,8.13l19.73,9.45Z" fill="#85b23b"></path><path d="M142.5,93l-.61-5.72-1.65,6.28c-5.11,1.32-10.15,2.87-15.21,4.52l-1.41-5-.41,5.61c-2.73.89-5.45,1.77-8.11,2.74l-1-6.23-1,7a53.42,53.42,0,0,0-9.33,4.6c-1-13.32,12.58-29.19,27.41-31.16,15-2,23.35,13.89,23.35,13.89l-3.93,1.8C147.86,91.78,145.17,92.36,142.5,93Z" fill="#6a9546"></path><path d="M183.28,96.93l.8-3.11-1.33,2.91a111.79,111.79,0,0,0-11.25-3.42l.19-3.89L170.36,93a141.77,141.77,0,0,0-16.43-2.87c1.05-1.68,5.58-7.78,16.93-9.83,12.44-2.24,22.92,12.12,23.17,20.8l-1.51-.23A95.34,95.34,0,0,0,183.28,96.93Z" fill="#85b23b"></path><path d="M166.42,178.23c3.14,3.58-.13,6.36.07,12a4.34,4.34,0,0,0,.26,1.35,21.83,21.83,0,0,0,9.93,4.22c.09-4.35,7.61-7.6,7.29-12.67-.33-5.28-7.45-2.41-4.85-8.28s1.67-13.34-2.49-16.09c-3.08-2-6.58-6.56-8.19-8.76,0,.63,0,1.26,0,1.89.32,3.44-1.12,7.24-2.89,10-1.64,2.53-4,4.64-5.31,7.38a8.16,8.16,0,0,0-.35.88C158.68,174.81,163.71,175.14,166.42,178.23Z" fill="#cec300"></path><path d="M169.77,167.72c.66,3,2.94,5.29,4.1,8.09,1.43,3.45-.1,6.69-.7,10.13-.62,3.62.78,6.68,2.56,9.69l.7.14a23.76,23.76,0,0,1-2.38-4.7,10.43,10.43,0,0,1-.26-5.59c.63-3.07,1.88-6.1.8-9.23-1-2.89-3.29-5.13-4.17-8.07-1.06-3.54,1-7.09.29-10.66a17,17,0,0,0-2.2-5l-.1-.17q0,.47-.07.93a15.51,15.51,0,0,1,1.78,4C171,160.78,169,164.23,169.77,167.72Z" fill="#2e6300"></path><path d="M199.38,170.83c3.32-1.38,6.65-6.17,4.23-9s-1.81-7.1-1.81-7.1a5.45,5.45,0,0,1-2.87,3c-6.8,2.35-7.4,6.26-7.55,9.28s3.47,9.51-7.39,13c-10.11,3.23-3,14.81-1.95,16.42a45.85,45.85,0,0,0,6.56-.33,58.34,58.34,0,0,1,7.31-3.25c6.49-2.42,4.08-8.16,1.21-11.48S196.06,172.21,199.38,170.83Z" fill="#cfe217"></path><path d="M201.59,155.47c-1.7,2.51-2,5.54-2.86,8.39-.9,3.09-2.89,5.45-4.49,8.19a12.94,12.94,0,0,0-1.6,4.07c-.3,1.57-.33,3.17-.49,4.76a12.35,12.35,0,0,1-1.49,5,29.83,29.83,0,0,1-3,4,17.88,17.88,0,0,0-3.81,6.42l.55,0a18.24,18.24,0,0,1,3.82-6.26c1.87-2.28,3.66-4.6,4.2-7.57.59-3.28.27-6.54,1.89-9.58,1.36-2.55,3.34-4.73,4.39-7.45,1.24-3.21,1.33-6.82,3.3-9.73C202.23,155.45,201.78,155.19,201.59,155.47Z" fill="#2e6300"></path><path d="M181.29,196.31A15,15,0,0,1,184,183.14c3.32-4.17,5.29-8.06,3-12.52a18.26,18.26,0,0,1-2-8.68c-3.32,6.8-6.65,9.21-5.91,12.92s-.13,5.36-2.44,11.1c-1.63,4.06,0,8,1.12,10C179,196.15,180.12,196.26,181.29,196.31Z" fill="#9abc0c"></path><path d="M179.38,196.18l.59,0c-1.35-3.86-1.85-7.91.12-11.77,1-2,2.42-3.82,3.37-5.87a12.14,12.14,0,0,0,.85-6.72,22,22,0,0,1,1-9.4c.11-.32-.4-.46-.51-.14a21.51,21.51,0,0,0-1.15,8.05c.07,1.45.35,2.89.29,4.34a9.75,9.75,0,0,1-1.05,3.83c-1,2.12-2.49,4-3.5,6.11a12.78,12.78,0,0,0-1.08,7.22A21.24,21.24,0,0,0,179.38,196.18Z" fill="#2e6300"></path><path d="M264,173.82c4.92,5.61-.2,10,.11,18.81a6.8,6.8,0,0,0,.41,2.11A34.2,34.2,0,0,0,280,201.35c.14-6.81,11.92-11.9,11.42-19.85-.52-8.27-11.67-3.78-7.59-13s2.61-20.89-3.89-25.21c-4.82-3.2-10.31-10.27-12.83-13.72,0,1,0,2,0,3,.5,5.39-1.76,11.34-4.52,15.6-2.57,4-6.3,7.27-8.31,11.56a12.78,12.78,0,0,0-.55,1.38C251.85,168.45,259.72,169,264,173.82Z" fill="#cec300"></path><path d="M269.21,157.34c1,4.73,4.61,8.29,6.43,12.67,2.24,5.41-.16,10.48-1.09,15.87-1,5.67,1.22,10.46,4,15.17l1.09.22a37.22,37.22,0,0,1-3.73-7.36,16.34,16.34,0,0,1-.4-8.75c1-4.82,2.94-9.55,1.26-14.46-1.55-4.52-5.16-8-6.53-12.64-1.66-5.55,1.53-11.11.45-16.7-.55-2.82-2-5.34-3.44-7.8l-.15-.27q0,.73-.1,1.46a24.29,24.29,0,0,1,2.78,6.29C271.1,146.48,268,151.89,269.21,157.34Z" fill="#2e6300"></path><path d="M315.6,162.21c5.2-2.16,10.41-9.66,6.62-14.16s-2.84-11.12-2.84-11.12a8.53,8.53,0,0,1-4.49,4.62c-10.64,3.68-11.59,9.81-11.83,14.54s5.44,14.9-11.58,20.34c-15.83,5.06-4.69,23.2-3,25.72a71.81,71.81,0,0,0,10.28-.52,91.38,91.38,0,0,1,11.45-5.09c10.17-3.78,6.39-12.77,1.89-18S310.39,164.38,315.6,162.21Z" fill="#cfe217"></path><path d="M319.05,138.16c-2.66,3.93-3.19,8.68-4.49,13.13-1.41,4.85-4.53,8.54-7,12.82a20.27,20.27,0,0,0-2.5,6.37c-.48,2.46-.52,5-.76,7.46a19.34,19.34,0,0,1-2.33,7.86,46.72,46.72,0,0,1-4.63,6.3c-2.46,3-5,6.3-6,10.06l.86,0c1-3.66,3.57-6.86,6-9.8,2.92-3.56,5.73-7.2,6.57-11.85.93-5.13.42-10.25,3-15,2.14-4,5.24-7.41,6.88-11.67,1.94-5,2.09-10.68,5.17-15.24C320.06,138.14,319.35,137.72,319.05,138.16Z" fill="#2e6300"></path><path d="M287.26,202.12c-2-6.59-.34-14.9,4.21-20.63,5.2-6.54,8.29-12.62,4.74-19.61a28.59,28.59,0,0,1-3.08-13.59c-5.2,10.64-10.41,14.43-9.25,20.23s-.21,8.39-3.82,17.38c-2.55,6.36,0,12.6,1.75,15.72C283.6,201.88,285.43,202,287.26,202.12Z" fill="#9abc0c"></path><path d="M284.27,201.92l.93.08c-2.11-6-2.9-12.4.19-18.43,1.62-3.15,3.79-6,5.28-9.2,1.61-3.47,1.71-6.76,1.33-10.52a34.39,34.39,0,0,1,1.58-14.72c.17-.5-.63-.72-.8-.22a33.69,33.69,0,0,0-1.8,12.61c.12,2.27.55,4.53.45,6.8a15.27,15.27,0,0,1-1.65,6c-1.61,3.31-3.89,6.24-5.48,9.57a20,20,0,0,0-1.7,11.31A33.26,33.26,0,0,0,284.27,201.92Z" fill="#2e6300"></path><path d="M295,192.55c4.92,5.61-.2,10,.11,18.81a6.8,6.8,0,0,0,.41,2.11,34.2,34.2,0,0,0,15.55,6.61c.14-6.81,11.92-11.9,11.42-19.85-.52-8.27-11.67-3.78-7.59-13s2.61-20.89-3.89-25.21c-4.82-3.2-10.31-10.27-12.83-13.72,0,1,0,2,0,3,.5,5.39-1.76,11.34-4.52,15.6-2.57,4-6.3,7.27-8.31,11.56a12.78,12.78,0,0,0-.55,1.38C282.91,187.18,290.78,187.71,295,192.55Z" fill="#cec300"></path><path d="M300.28,176.07c1,4.73,4.61,8.29,6.43,12.67,2.24,5.41-.16,10.48-1.09,15.87-1,5.67,1.22,10.46,4,15.17l1.09.22a37.22,37.22,0,0,1-3.73-7.36,16.34,16.34,0,0,1-.4-8.75c1-4.82,2.94-9.55,1.26-14.46-1.55-4.52-5.16-8-6.53-12.64-1.66-5.55,1.53-11.11.45-16.7-.55-2.82-2-5.34-3.44-7.8l-.15-.27q0,.73-.1,1.46a24.29,24.29,0,0,1,2.78,6.29C302.16,165.21,299.09,170.62,300.28,176.07Z" fill="#2e6300"></path><path d="M346.66,180.95c5.2-2.16,10.41-9.66,6.62-14.16s-2.84-11.12-2.84-11.12a8.53,8.53,0,0,1-4.49,4.62c-10.64,3.68-11.59,9.81-11.83,14.54s5.44,14.9-11.58,20.34c-15.83,5.06-4.69,23.2-3,25.72a71.81,71.81,0,0,0,10.28-.52,91.38,91.38,0,0,1,11.45-5.09c10.17-3.78,6.39-12.77,1.89-18S341.45,183.11,346.66,180.95Z" fill="#cfe217"></path><path d="M350.11,156.89c-2.66,3.93-3.19,8.68-4.49,13.13-1.41,4.85-4.53,8.54-7,12.82a20.27,20.27,0,0,0-2.5,6.37c-.48,2.46-.52,5-.76,7.46a19.34,19.34,0,0,1-2.33,7.86,46.72,46.72,0,0,1-4.63,6.3c-2.46,3-5,6.3-6,10.06l.86,0c1-3.66,3.57-6.86,6-9.8,2.92-3.56,5.73-7.2,6.57-11.85.93-5.13.42-10.25,3-15,2.14-4,5.24-7.41,6.88-11.67,1.94-5,2.09-10.68,5.17-15.24C351.13,156.87,350.41,156.45,350.11,156.89Z" fill="#2e6300"></path><path d="M318.32,220.86c-2-6.59-.34-14.9,4.21-20.63,5.2-6.54,8.29-12.62,4.74-19.61A28.59,28.59,0,0,1,324.19,167c-5.2,10.64-10.41,14.43-9.25,20.23s-.21,8.39-3.82,17.38c-2.55,6.36,0,12.6,1.75,15.72C314.66,220.61,316.49,220.78,318.32,220.86Z" fill="#9abc0c"></path><path d="M315.33,220.65l.93.08c-2.11-6-2.9-12.4.19-18.43,1.62-3.15,3.79-6,5.28-9.2,1.61-3.47,1.71-6.76,1.33-10.52a34.39,34.39,0,0,1,1.58-14.72c.17-.5-.63-.72-.8-.22a33.69,33.69,0,0,0-1.8,12.61c.12,2.27.55,4.53.45,6.8a15.27,15.27,0,0,1-1.65,6c-1.61,3.31-3.89,6.24-5.48,9.57a20,20,0,0,0-1.7,11.31A33.26,33.26,0,0,0,315.33,220.65Z" fill="#2e6300"></path><path d="M226,114.66s-.65-3.1-8.18-5.28-9.38,8.92-9.38,8.92" fill="#18272a"></path><path d="M229,118.91s4.93,16.49.7,22.69c-2.06,3-15.34,3.39-15.34,3.39" fill="#18272a"></path><path d="M200.58,86.21s1.28-4,1.14-6,.67-6.37-.54-6.5-2.1,3.23-2.29,3.78-2.41-1.73-3.3-3.06-4.38-2-5-.69,2.91,7.49,3.67,9.06,2.06,4.48,2.06,4.48A5.51,5.51,0,0,0,200.58,86.21Z" fill="#5c2e2e"></path><path d="M234.3,94.36s-.52-4.15,0-6.14.52-6.39,1.73-6.3,1.47,3.53,1.56,4.11,2.69-1.29,3.82-2.45,4.68-1.24,5,.17-4.25,6.88-5.29,8.29-2.86,4.06-2.86,4.06A5.45,5.45,0,0,1,234.3,94.36Z" fill="#5c2e2e"></path><path d="M202.56,81.26c-2.94,2.51-3.78,3-7.71,3.72,1.41,6.68,3.73,33.5,8.19,43.39L209,110.9Z" fill="#f7931e"></path><path d="M203,140.63s-4.28,21.81-3.89,33.78.6,26.61,1.56,33.09c0,0,8.29,1.11,11.1-1.27,0,0,.83-41.92.89-41.69,1.27,5.51,7.22,33.77,7.86,35.62s3.69,16.74,3.69,16.74A15.6,15.6,0,0,0,236,215s-1-21.45-3-27.48-8.61-43.93-11.87-46.89" fill="#181816" opacity="0.67"></path><path d="M233.32,211.74v0c-1,0-2.39,1-3.3,1.44l-2.5,1.17s-1.67,5.93-2.61,8.09-4.37,6.91-3.18,8.68a5.69,5.69,0,0,0,7.38,1.41c3.14-1.64,3.05-7.14,4.19-9.28.94-1.77.5-5.52.5-6.33A19.92,19.92,0,0,0,233.32,211.74Z" fill="#181816"></path><path d="M207.51,201v0c-1,0-2.39,1-3.3,1.44l-2.5,1.17s-.86,6.45-2.61,8.09-8.41,5.11-7.22,6.88a5.5,5.5,0,0,0,7.22,1.59c3.14-1.64,5.19-5,7.44-5.89,1.92-.74,1.11-5.52,1.18-7.12A21.7,21.7,0,0,0,207.51,201Z" fill="#181816"></path><path d="M203,140.63s-4.28,21.81-3.89,33.78.6,26.61,1.56,33.09c0,0,8.29,1.11,11.1-1.27,0,0,.83-41.92.89-41.69,1.27,5.51,7.22,33.77,7.86,35.62s3.69,16.74,3.69,16.74A15.6,15.6,0,0,0,236,215s-1-21.45-3-27.48-8.61-43.93-11.87-46.89" fill="#e19494"></path><path d="M221,142.38s7.33-20.39,4.37-25.06S210.5,109,204.8,109.46s-2,32.68-1.14,32.92S213,148.14,221,142.38Z" fill="#f7931e"></path><path d="M208.48,112.14S202.27,123.41,202,130l-.8-6s3.06-12.24,7.11-14.61Z" fill="#18272a"></path><path d="M217.88,112.16s-4.8,15.13,6.1,20.5l-.77,2.75a14.82,14.82,0,0,1-8.89-12c-.92-8.95.3-12.9,1.42-12.41A17.07,17.07,0,0,1,217.88,112.16Z" fill="#18272a"></path><path d="M216.39,106.33c-1.33,1.41-3.9.78-5.59.41-2-.44-4.4-1.63-4.22-4,0-.35-.55-.35-.57,0-.19,2.44,2.13,3.9,4.32,4.43,2,.47,4.91,1.17,6.47-.48C217,106.46,216.63,106.07,216.39,106.33Z" fill="#009245"></path><path d="M205.45,101.29s0,11.91,4.56,12.68c5,.85,7.84-4.6,7.84-4.6s.64-10.52-4.34-11.45S205.6,99.77,205.45,101.29Z" fill="#fbb5ad"></path><path d="M209.29,109.3a.89.89,0,0,1-.34-.05,32,32,0,0,1,.47-3.31c.08-.39-.56-.5-.64-.11a32,32,0,0,0-.49,3.54.33.33,0,0,0,.18.34,1.69,1.69,0,0,0,.88.21C209.77,109.92,209.71,109.3,209.29,109.3Z" fill="#56403d"></path><path d="M211.4,109.57a1.85,1.85,0,0,1-2.33.93c-.26-.09-.38.31-.12.4a2.28,2.28,0,0,0,2.82-1.12C211.89,109.54,211.52,109.33,211.4,109.57Z" fill="#56403d"></path><path d="M210.82,107.88a.31.31,0,1,0,0,.62A.31.31,0,1,0,210.82,107.88Z" fill="#56403d"></path><path d="M206.81,107a.31.31,0,1,0,0,.62A.31.31,0,1,0,206.81,107Z" fill="#56403d"></path><path d="M214.32,108.19s1.21-4.57,2.54-3.06-2.16,4.79-2.16,4.79" fill="#fbb5ad"></path><path d="M215.54,96.45s4.46.46,5.75,3.86-2,10.15-4.42,11.2l2.89-5.93-.14-4Z" fill="#5c2e2e"></path><path d="M221.22,101.82c-.36-2.38-2-3.53-4.16-4.75l-.53-.28a3.43,3.43,0,0,0,1-1.2.31.31,0,0,0-.28-.47,2.07,2.07,0,0,0-1.47.69,4.64,4.64,0,0,0-1-1.31.34.34,0,0,0-.54.14,1.62,1.62,0,0,0,.08,1.43,9.84,9.84,0,0,0-6.57,1,5.35,5.35,0,0,0-1.81,1.65,3.38,3.38,0,0,0-1.77.3,2.82,2.82,0,0,0-1.68,3c.32,1.43,1.91,1.9,3.26,1.68a4.21,4.21,0,0,0,1.88-.85c-.41.65-.61,1.48.71,1.77,2.28.5,3.37-.8,3.51.29.12.89,1.4,1.38,2.33,1.4.07.14.24.5.44,1a2.87,2.87,0,0,1,1.43-.08.36.36,0,0,1,.56.05c.79,1.3.61,2.72.3,4.22a12.1,12.1,0,0,0,3-3.63A10.33,10.33,0,0,0,221.22,101.82Zm-6.48-6.38.1.13a.3.3,0,0,0,0,.1c0,.1.08.2.12.3A1.12,1.12,0,0,1,214.73,95.44Z" fill="#5c2e2e"></path><path d="M215.75,123.89v-3l-12-2-.91,3C207,123,211.39,123.37,215.75,123.89Z" fill="#18272a"></path><path d="M202.35,134.41s5.6,3.61,20.33,2.74l-1.1,2s-9.85,1.61-19-2.36Z" fill="#18272a"></path><path d="M233.08,90.14l-11.6,24.16,2,16.87,17.05-37.88A53.17,53.17,0,0,1,233.08,90.14Z" fill="#f7931e"></path><path d="M221.47,230a28.45,28.45,0,0,0,.43,4.37c.27.43.67,2,5.77,2s6.21-6.38,6.21-6.38-.32-4.44,0-5,0-5.81,0-5.81" fill="#181816"></path><path d="M191.73,218.09v3.52s.94,2.59,5.2,2a9.68,9.68,0,0,0,6.73-4.41,29.63,29.63,0,0,1,3.92-2.91c.48-.37.24-6,.24-6" fill="#181816"></path><path d="M207.58,97.41c.38,0,4-6.19,10.08-3.34C225.54,97.79,221,105,221,105" fill="#a81b29"></path><path d="M205.4,98.81s6.17,0,8.94,2.1,5.2,6.54,6.11,6a3.84,3.84,0,0,0,1.44-3.29c-.19-.61-2.68-5.41-9.87-7.43S205.4,98.81,205.4,98.81Z" fill="#ea3943"></path><path d="M254,157.55s8.17-1.49,14.66.92,15.78-1.38,15.78-1.38v17.35s-10.21.93-15.22-.93-14.11,1.16-14.11,1.16" fill="#e19494"></path><rect x="253.96" y="154.74" width="2.98" height="88.37" fill="#312c32"></rect><polyline points="197.22 217.81 159.71 227.79 191.71 247.94 230.31 235.71 233.86 220.73 206.53 214.25" opacity="0.32" fill="url(#linear-gradient-3)"></polyline><polygon points="235.17 261.32 256.94 243.11 253.46 241.08 227.75 253.96 235.17 261.32" opacity="0.32" fill="url(#linear-gradient-4)"></polygon></svg>